<svg version="1.1" xmlns="http://www.w3.org/2000/svg" width="801" height="311">
<path d="M0 0 C2.27734375 0.51171875 2.27734375 0.51171875 3.27734375 1.51171875 C3.36605648 4.54149679 3.39253725 7.54838897 3.375 10.578125 C3.37358505 11.48674789 3.3721701 12.39537079 3.37071228 13.33152771 C3.36509568 16.24579096 3.3525404 19.15997856 3.33984375 22.07421875 C3.33483089 24.04492077 3.33026761 26.01562399 3.32617188 27.98632812 C3.31512086 32.82815434 3.29784513 37.6699237 3.27734375 42.51171875 C4.04320801 42.6514209 4.80907227 42.79112305 5.59814453 42.93505859 C9.72154259 43.82256235 13.3448254 45.75509781 17.14453125 47.55078125 C23.45255406 49.48566107 28.99170857 47.05945289 34.71484375 44.44921875 C35.66907227 44.02672852 35.66907227 44.02672852 36.64257812 43.59570312 C38.19097426 42.90882063 39.73467732 42.21137468 41.27734375 41.51171875 C41.31492798 39.70199585 41.31492798 39.70199585 41.35327148 37.85571289 C41.44716898 33.39596214 41.54743208 28.93637362 41.6496582 24.47680664 C41.69307416 22.5435769 41.73474417 20.61030716 41.7746582 18.67700195 C41.83220006 15.90433673 41.89593995 13.13187418 41.9609375 10.359375 C41.97764999 9.48958511 41.99436249 8.61979523 42.01158142 7.72364807 C42.16347204 1.62559046 42.16347204 1.62559046 43.27734375 0.51171875 C44.9435149 0.47108043 46.6112247 0.46899775 48.27734375 0.51171875 C48.60943848 1.09550293 48.9415332 1.67928711 49.28369141 2.28076172 C50.82205007 4.9834279 52.36218882 7.68507582 53.90234375 10.38671875 C54.42441406 11.30453125 54.94648437 12.22234375 55.484375 13.16796875 C60.33619871 21.67363501 65.37174513 30.06008552 70.4921875 38.40625 C71.57464379 41.30895618 71.2523669 42.55317211 70.27734375 45.51171875 C68.90357504 48.37737673 67.35453618 51.12883151 65.77734375 53.88671875 C65.11001221 55.06959473 65.11001221 55.06959473 64.42919922 56.27636719 C60.18087486 63.76774467 55.81960465 71.19461364 51.27734375 78.51171875 C50.71789062 79.6203125 50.1584375 80.72890625 49.58203125 81.87109375 C46.96881181 84.86522314 46.30475819 84.9626554 42.52734375 85.38671875 C41.11172071 85.45521664 39.69461009 85.50566206 38.27734375 85.51171875 C37.58061089 130.44026922 42.34811947 175.2137122 48.36643982 219.69728088 C50.23174119 233.93398049 50.23174119 233.93398049 48.02734375 237.578125 C47.16109375 238.31869141 47.16109375 238.31869141 46.27734375 239.07421875 C45.6328125 239.6465625 44.98828125 240.21890625 44.32421875 240.80859375 C43.64875 241.370625 42.97328125 241.93265625 42.27734375 242.51171875 C41.02673558 243.61519654 39.77674584 244.71937558 38.52734375 245.82421875 C37.86605469 246.39527344 37.20476562 246.96632813 36.5234375 247.5546875 C33.84990166 249.8841509 31.21766101 252.2558105 28.58984375 254.63671875 C27.25373047 255.84714844 27.25373047 255.84714844 25.890625 257.08203125 C23.22516912 259.49640138 23.22516912 259.49640138 20.7578125 262.25390625 C17.98579586 264.7770962 16.99452378 265.48371488 13.27734375 265.51171875 C10.98871092 263.77490137 9.20020094 262.15841581 7.2421875 260.09765625 C6.68165176 259.5310025 6.12111603 258.96434875 5.54359436 258.38052368 C3.75286132 256.56283384 1.98425938 254.72514135 0.21484375 252.88671875 C-0.97978565 251.67056304 -2.1757356 250.45570299 -3.37304688 249.2421875 C-6.52475904 246.03031904 -9.6660134 242.81447398 -12.72265625 239.51171875 C-13.49714111 238.68945801 -14.27162598 237.86719727 -15.06958008 237.02001953 C-20.32886694 229.03982264 -16.2238037 214.07311091 -15.09765625 205.01171875 C-15.01062439 204.29361023 -14.92359253 203.57550171 -14.83392334 202.83563232 C-3.73355031 111.53350687 -3.73355031 111.53350687 9.27734375 85.51171875 C8.55289063 85.54394531 7.8284375 85.57617188 7.08203125 85.609375 C6.11523438 85.59777344 5.1484375 85.58617188 4.15234375 85.57421875 C3.20101562 85.58582031 2.2496875 85.59742187 1.26953125 85.609375 C-3.60925187 83.81963863 -5.21063386 79.88597417 -7.72265625 75.51171875 C-8.36283691 74.41770752 -9.00301758 73.32369629 -9.66259766 72.1965332 C-11.79620467 68.5269154 -13.88615911 64.8332613 -15.97265625 61.13671875 C-17.05201342 59.23024024 -18.13233321 57.32431597 -19.21380615 55.41903687 C-20.18510232 53.70701524 -21.15366595 51.99344419 -22.12207031 50.27978516 C-23.25663806 48.31765442 -24.46540638 46.39759356 -25.72265625 44.51171875 C-25.64014139 38.46979751 -22.27747956 33.73971913 -19.28515625 28.69921875 C-18.74818115 27.78374268 -18.21120605 26.8682666 -17.65795898 25.92504883 C-16.5533935 24.04215189 -15.44604126 22.16088704 -14.3359375 20.28125 C-12.80898776 17.65992466 -11.33526106 15.01651365 -9.87890625 12.35546875 C-9.4398999 11.56760986 -9.00089355 10.77975098 -8.54858398 9.96801758 C-7.72177649 8.48327901 -6.90818814 6.99108239 -6.10961914 5.4909668 C-3.35430963 0.63043696 -3.35430963 0.63043696 0 0 Z " fill="#040404" transform="translate(41.72265625,23.48828125)"/>
<path d="M0 0 C40.41666667 0 40.41666667 0 48.4375 5.25 C53.22587372 10.38874253 54.5814651 15.45067873 54.3515625 22.31640625 C53.49763767 28.83469915 51.20483117 34.72211735 47.125 39.875 C46.073125 41.421875 46.073125 41.421875 45 43 C46.45099991 47.97365866 49.29115305 52.56695445 51.66015625 57.16015625 C54.73634679 63.68024523 54.98546517 71.07267417 53.57421875 78.12890625 C51.82139088 82.93574097 48.33116201 86.44534851 44 89 C35 92 35 92 0 92 C0 61.64 0 31.28 0 0 Z M21 18 C21 25.92 21 33.84 21 42 C27.91209239 38.5439538 30.51049712 34.13657491 33 27 C33.58963678 24.24224658 33.58963678 24.24224658 33 22 C29.63559456 18.01089951 29.63559456 18.01089951 21 18 Z M22.93359375 57.734375 C19.53275685 61.71919399 20.35778016 66.15262916 20.68359375 71.1484375 C20.78800781 72.08945313 20.89242188 73.03046875 21 74 C25.46641443 74.35030701 28.94914438 74.49325876 33.0625 72.5625 C35.51600066 69.31754751 35.58604258 67.31155365 35.375 63.328125 C34.81459758 59.84895999 33.59964613 57.13264035 32 54 C28.43463757 54 25.84822335 55.81305117 22.93359375 57.734375 Z " fill="#FC0403" transform="translate(311,110)"/>
<path d="M0 0 C7.77166856 5.35185358 11.77385031 14.10739521 13.71875 23.18359375 C16.16941236 41.80778915 17.72520331 66.46743092 6.1171875 82.37890625 C0.47478504 88.53659661 -5.2200575 90.24566182 -13.40332031 90.63525391 C-22.50039508 90.83044472 -29.46344434 89.75864176 -36.296875 83.26953125 C-48.65821393 68.98647156 -47.09535837 47.84522249 -46.28125 30.18359375 C-45.22989758 19.23200609 -41.64989303 8.66235845 -33.28125 1.18359375 C-24.666204 -5.1930451 -9.21592428 -5.12192715 0 0 Z M-23.28125 21.18359375 C-24.79481217 27.76072013 -24.50391888 34.52875103 -24.52148438 41.2409668 C-24.53117764 43.47938381 -24.56224337 45.7168764 -24.59375 47.95507812 C-24.65054395 55.50225825 -24.53350834 62.21555426 -21.28125 69.18359375 C-17.79000983 71.5110872 -16.38902749 71.68658691 -12.28125 71.18359375 C-9.48817926 69.55430249 -8.51832668 68.06500544 -7.68164062 64.9543457 C-6.35400492 57.81436811 -5.97785018 50.93706997 -6.03125 43.68359375 C-6.02351563 42.63300781 -6.01578125 41.58242187 -6.0078125 40.5 C-5.90381077 28.47611039 -5.90381077 28.47611039 -10.03125 17.49609375 C-15.81122887 14.12443941 -19.47754688 16.18444108 -23.28125 21.18359375 Z " fill="#080808" transform="translate(515.28125,111.81640625)"/>
<path d="M0 0 C1.08087891 -0.01740234 1.08087891 -0.01740234 2.18359375 -0.03515625 C10.16866373 0.00816239 15.93393637 3.07704806 21.7109375 8.44140625 C30.83358412 18.30103524 30.99148858 33.6734892 30.875 46.3125 C30.88660156 47.56740234 30.89820313 48.82230469 30.91015625 50.11523438 C30.86824342 63.66006369 29.28835901 76.95515242 19.765625 87.25 C12.75035847 93.70652849 4.85176709 93.98761719 -4.28515625 93.75 C-11.49926684 93.30082256 -16.9069368 90.36409918 -21.875 85.1875 C-28.27446753 76.88450813 -29.65276995 67.24918691 -29.66796875 57.046875 C-29.67296135 55.86330414 -29.67296135 55.86330414 -29.67805481 54.65582275 C-29.68309778 52.9917458 -29.68546395 51.32765881 -29.68530273 49.66357422 C-29.68748127 47.14663578 -29.70564301 44.63014187 -29.72460938 42.11328125 C-29.81290486 17.22429547 -29.81290486 17.22429547 -21.70703125 8.4296875 C-15.13631619 2.35463566 -8.88221208 -0.1430052 0 0 Z M-5.8125 21.1875 C-12.43455106 33.69581867 -11.57354925 56.08359072 -7.5 69.375 C-6.07645266 72.68566045 -6.07645266 72.68566045 -3.5 74.375 C0 75.20833333 0 75.20833333 3.5 74.375 C7.67495961 70.41977511 8.42739196 67.10857185 8.66113281 61.52783203 C8.68120391 59.97955901 8.69481361 58.43119331 8.703125 56.8828125 C8.71167511 55.64747269 8.71167511 55.64747269 8.72039795 54.38717651 C8.72982889 52.64729083 8.73637435 50.90738743 8.74023438 49.16748047 C8.74994039 46.51628248 8.78098132 43.86585999 8.8125 41.21484375 C8.81903074 39.52083792 8.82428093 37.82682656 8.828125 36.1328125 C8.8404718 35.34512482 8.8528186 34.55743713 8.86553955 33.74588013 C8.8421925 27.93128822 7.75906361 23.63406361 3.5 19.375 C-0.47124914 18.86020844 -2.60135143 18.67065382 -5.8125 21.1875 Z " fill="#FC0604" transform="translate(244.5,108.625)"/>
<path d="M0 0 C8.2172798 6.17456617 12.37669258 14.95931757 14 25 C14.11623111 27.65588087 14.18753315 30.28519363 14.203125 32.94140625 C14.20882507 33.70492905 14.21452515 34.46845184 14.22039795 35.25511169 C14.22981939 36.86968617 14.23637055 38.48427962 14.24023438 40.09887695 C14.24987303 42.53046769 14.28089464 44.9611878 14.3125 47.39257812 C14.40766188 61.19989445 13.23008317 73.38065614 3.265625 83.81640625 C-3.79310945 90.29732394 -11.58297979 90.61735897 -20.78515625 90.37109375 C-27.29812799 89.96412353 -32.05666311 87.77661192 -36.79296875 83.30859375 C-49.11192949 68.73876117 -46.86652237 45.83148124 -46 28 C-45.03678627 18.12457679 -42.66543236 8.84757242 -35 2 C-26.27706101 -4.47833335 -9.35620273 -6.23042845 0 0 Z M-23 19 C-25.54405633 26.23095582 -25.33821856 33.63572702 -25.31567383 41.20825195 C-25.31251203 43.42904714 -25.33603508 45.6485092 -25.36132812 47.86914062 C-25.39575351 55.37882284 -25.22170087 62.06617542 -22 69 C-18.50875983 71.32749345 -17.10777749 71.50299316 -13 71 C-10.37713132 69.3971358 -9.29722132 67.97613485 -8.40039062 65.03076172 C-6.88643041 57.82748262 -6.70098688 50.84379906 -6.75 43.5 C-6.74226562 42.34113281 -6.73453125 41.18226563 -6.7265625 39.98828125 C-6.58177233 28.15201781 -6.58177233 28.15201781 -10.75 17.375 C-15.17130673 14.67309033 -19.57288246 15.08329424 -23 19 Z " fill="#090909" transform="translate(751,112)"/>
<path d="M0 0 C15.51 0 31.02 0 47 0 C47 5.94 47 11.88 47 18 C38.09 18 29.18 18 20 18 C20.33 24.27 20.66 30.54 21 37 C22.98 35.68 24.96 34.36 27 33 C32.35514407 30.5658436 37.21726982 30.84371 43 31 C43 36.94 43 42.88 43 49 C41.14375 49.268125 39.2875 49.53625 37.375 49.8125 C31.54410382 50.80032241 27.15799511 51.83628407 22.88183594 56.1237793 C20.55191163 59.68486367 20.39790128 62.58498962 20.390625 66.70703125 C20.37408875 67.43242599 20.35755249 68.15782074 20.34051514 68.90519714 C20.29217523 71.20771873 20.27069715 73.50958066 20.25 75.8125 C20.22182832 77.37959023 20.1918992 78.94664992 20.16015625 80.51367188 C20.0831288 84.34274709 20.04248736 88.16976482 20 92 C13.4 92 6.8 92 0 92 C0 61.64 0 31.28 0 0 Z " fill="#080808" transform="translate(391,110)"/>
<path d="M0 0 C0.83265381 0.00523682 1.66530762 0.01047363 2.52319336 0.01586914 C3.42231445 0.0190918 4.32143555 0.02231445 5.24780273 0.02563477 C6.66609375 0.03820312 6.66609375 0.03820312 8.11303711 0.05102539 C9.06243164 0.05553711 10.01182617 0.06004883 10.98999023 0.06469727 C13.34356776 0.07652429 15.69702188 0.09300514 18.05053711 0.11352539 C18.1201134 13.40485807 18.17338728 26.69614727 18.20597363 39.98762512 C18.22161511 46.15970299 18.242826 52.33165606 18.27685547 58.50366211 C18.30950254 64.4623741 18.32740154 70.4209662 18.33516884 76.37976074 C18.34070271 78.65069465 18.35150899 80.92162215 18.36772728 83.19250488 C18.38957224 86.3785611 18.39250103 89.56412482 18.39111328 92.75024414 C18.40189911 93.684608 18.41268494 94.61897186 18.42379761 95.58164978 C18.38820947 103.1554045 16.9678428 109.6191377 11.73803711 115.42602539 C11.1850293 116.0615332 10.63202148 116.69704102 10.06225586 117.35180664 C5.53391674 121.3174007 0.72355952 122.62169571 -5.13696289 123.48852539 C-6.95260742 123.77856445 -6.95260742 123.77856445 -8.80493164 124.07446289 C-11.94946289 124.11352539 -11.94946289 124.11352539 -13.62329102 122.87597656 C-15.24272161 120.72379147 -15.32371086 119.62302331 -15.31274414 116.95336914 C-15.31209961 116.15995117 -15.31145508 115.3665332 -15.31079102 114.54907227 C-15.29467773 113.7247168 -15.27856445 112.90036133 -15.26196289 112.05102539 C-15.26518555 111.22280273 -15.2684082 110.39458008 -15.27172852 109.54125977 C-15.21658881 103.38065131 -15.21658881 103.38065131 -12.94946289 101.11352539 C-10.90157807 100.27594469 -8.82580269 99.59317552 -6.72680664 98.89477539 C-4.75299842 98.25297635 -4.75299842 98.25297635 -3.94946289 96.11352539 C-3.83174159 93.12921692 -3.77421201 90.16693181 -3.76000977 87.18164062 C-3.75171646 86.25636566 -3.74342316 85.3310907 -3.73487854 84.3777771 C-3.71745654 82.36487492 -3.70229564 80.35195221 -3.68910217 78.33901787 C-3.66812412 75.15866084 -3.64109864 71.97840731 -3.61242676 68.79811096 C-3.54249224 60.90012727 -3.48311606 53.00207027 -3.42340088 45.10400391 C-3.37256375 38.43189686 -3.31777071 31.75984569 -3.25758362 25.08781624 C-3.2309084 21.94515239 -3.21015593 18.80248362 -3.1895752 15.65977478 C-3.17298025 13.74518585 -3.15610912 11.83059928 -3.13891602 9.91601562 C-3.1347316 9.03443283 -3.13054718 8.15285004 -3.12623596 7.24455261 C-3.05233167 0.17775006 -3.05233167 0.17775006 0 0 Z " fill="#FD0504" transform="translate(159.949462890625,109.886474609375)"/>
<path d="M0 0 C6.93 0 13.86 0 21 0 C21 24.42 21 48.84 21 74 C29.91 74 38.82 74 48 74 C52.24918293 78.24918293 49 85.99074787 49 92 C32.83 92 16.66 92 0 92 C0 61.64 0 31.28 0 0 Z " fill="#080808" transform="translate(566,110)"/>
<path d="M0 0 C6.93 0 13.86 0 21 0 C21 30.36 21 60.72 21 92 C14.07 92 7.14 92 0 92 C0 61.64 0 31.28 0 0 Z " fill="#030303" transform="translate(648,110)"/>
<path d="M0 0 C0.83265381 0.00523682 1.66530762 0.01047363 2.52319336 0.01586914 C3.42231445 0.0190918 4.32143555 0.02231445 5.24780273 0.02563477 C6.66609375 0.03820312 6.66609375 0.03820312 8.11303711 0.05102539 C9.06243164 0.05553711 10.01182617 0.06004883 10.98999023 0.06469727 C13.34356776 0.07652429 15.69702188 0.09300514 18.05053711 0.11352539 C18.1201134 13.40485807 18.17338728 26.69614727 18.20597363 39.98762512 C18.22161511 46.15970299 18.242826 52.33165606 18.27685547 58.50366211 C18.30950254 64.4623741 18.32740154 70.4209662 18.33516884 76.37976074 C18.34070271 78.65069465 18.35150899 80.92162215 18.36772728 83.19250488 C18.38957224 86.3785611 18.39250103 89.56412482 18.39111328 92.75024414 C18.40189911 93.684608 18.41268494 94.61897186 18.42379761 95.58164978 C18.38820947 103.1554045 16.9678428 109.6191377 11.73803711 115.42602539 C11.1850293 116.0615332 10.63202148 116.69704102 10.06225586 117.35180664 C5.53391674 121.3174007 0.72355952 122.62169571 -5.13696289 123.48852539 C-6.95260742 123.77856445 -6.95260742 123.77856445 -8.80493164 124.07446289 C-11.94946289 124.11352539 -11.94946289 124.11352539 -13.62329102 122.87597656 C-15.24272161 120.72379147 -15.32371086 119.62302331 -15.31274414 116.95336914 C-15.31209961 116.15995117 -15.31145508 115.3665332 -15.31079102 114.54907227 C-15.29467773 113.7247168 -15.27856445 112.90036133 -15.26196289 112.05102539 C-15.26518555 111.22280273 -15.2684082 110.39458008 -15.27172852 109.54125977 C-15.21658881 103.38065131 -15.21658881 103.38065131 -12.94946289 101.11352539 C-10.90157807 100.27594469 -8.82580269 99.59317552 -6.72680664 98.89477539 C-4.75299842 98.25297635 -4.75299842 98.25297635 -3.94946289 96.11352539 C-3.83174159 93.12921692 -3.77421201 90.16693181 -3.76000977 87.18164062 C-3.75171646 86.25636566 -3.74342316 85.3310907 -3.73487854 84.3777771 C-3.71745654 82.36487492 -3.70229564 80.35195221 -3.68910217 78.33901787 C-3.66812412 75.15866084 -3.64109864 71.97840731 -3.61242676 68.79811096 C-3.54249224 60.90012727 -3.48311606 53.00207027 -3.42340088 45.10400391 C-3.37256375 38.43189686 -3.31777071 31.75984569 -3.25758362 25.08781624 C-3.2309084 21.94515239 -3.21015593 18.80248362 -3.1895752 15.65977478 C-3.17298025 13.74518585 -3.15610912 11.83059928 -3.13891602 9.91601562 C-3.1347316 9.03443283 -3.13054718 8.15285004 -3.12623596 7.24455261 C-3.05233167 0.17775006 -3.05233167 0.17775006 0 0 Z M-0.94946289 2.11352539 C-0.95977036 3.29481018 -0.97007782 4.47609497 -0.98069763 5.69317627 C-1.07838927 16.81738783 -1.18111941 27.94154292 -1.28880215 39.06566238 C-1.34400239 44.78488489 -1.39741785 50.50411254 -1.44677734 56.22338867 C-1.49446352 61.74121317 -1.54680801 67.25897549 -1.60240364 72.77672577 C-1.62280789 74.88346563 -1.64152415 76.99022252 -1.65853691 79.09699249 C-1.68262353 82.04429795 -1.71267247 84.99148612 -1.74414062 87.9387207 C-1.74989609 88.81265976 -1.75565155 89.68659882 -1.76158142 90.58702087 C-1.77626465 91.79428581 -1.77626465 91.79428581 -1.79124451 93.02593994 C-1.79769706 93.72281544 -1.80414961 94.41969093 -1.81079769 95.13768387 C-1.94946289 97.11352539 -1.94946289 97.11352539 -2.94946289 101.11352539 C-7.89946289 102.10352539 -7.89946289 102.10352539 -12.94946289 103.11352539 C-12.94946289 109.05352539 -12.94946289 114.99352539 -12.94946289 121.11352539 C-3.25293413 121.35567004 -3.25293413 121.35567004 6.05053711 119.11352539 C6.13303711 118.49477539 6.21553711 117.87602539 6.30053711 117.23852539 C6.54803711 116.53727539 6.79553711 115.83602539 7.05053711 115.11352539 C7.66928711 114.82477539 8.28803711 114.53602539 8.92553711 114.23852539 C12.01002045 112.60556362 12.66134986 110.22265876 14.05053711 107.11352539 C14.38053711 106.78352539 14.71053711 106.45352539 15.05053711 106.11352539 C15.16862832 104.3419194 15.21789586 102.5656832 15.23999023 100.7902832 C15.25670776 99.65109436 15.27342529 98.51190552 15.29064941 97.3381958 C15.30422485 96.09358582 15.31780029 94.84897583 15.33178711 93.56665039 C15.35992887 91.61406197 15.38807529 89.66147361 15.41648102 87.70888901 C15.46525568 84.26048657 15.507513 80.8120035 15.55053711 77.36352539 C15.60186668 73.29550659 15.65470587 69.22752536 15.71350098 65.15960693 C15.7497029 62.62519505 15.78222961 60.09072699 15.8104248 57.55621338 C15.90816037 50.67504116 16.25575621 43.86858466 16.82891846 37.01104736 C17.10822541 33.35928775 17.17997528 29.76049025 17.18334961 26.09790039 C17.18430634 25.43058899 17.18526306 24.76327759 17.18624878 24.07574463 C17.1869172 22.69820051 17.18515885 21.32065296 17.1809082 19.94311523 C17.1754352 17.82406819 17.18095063 15.70522322 17.18725586 13.58618164 C17.18659684 12.23592076 17.18531937 10.88566 17.18334961 9.53540039 C17.18222168 8.32464844 17.18109375 7.11389648 17.17993164 5.86645508 C17.36426479 3.20287711 17.36426479 3.20287711 16.05053711 2.11352539 C13.18786144 2.04027371 10.34981811 2.02114334 7.48803711 2.05102539 C6.68172852 2.05553711 5.87541992 2.06004883 5.04467773 2.06469727 C3.04659955 2.07652021 1.04855928 2.09445625 -0.94946289 2.11352539 Z " fill="#E12D2C" transform="translate(159.949462890625,109.886474609375)"/>
<path d="M0 0 C40.41666667 0 40.41666667 0 48.4375 5.25 C53.37045885 10.54390706 54.44215399 15.5371732 54.23828125 22.5546875 C53.9110168 25.91317185 53.10722622 28.81672463 52 32 C51.67 32 51.34 32 51 32 C51.33 27.05 51.66 22.1 52 17 C51.34 17 50.68 17 50 17 C49.85304688 16.30132812 49.70609375 15.60265625 49.5546875 14.8828125 C48.87413563 12.12149286 48.17228806 9.59363365 47 7 C43.98226415 5.23902514 43.98226415 5.23902514 41 5 C41 4.34 41 3.68 41 3 C21.695 2.505 21.695 2.505 2 2 C2.33 31.04 2.66 60.08 3 90 C9.93 90.33 16.86 90.66 24 91 C24 90.34 24 89.68 24 89 C25.02480469 88.93941406 26.04960937 88.87882812 27.10546875 88.81640625 C28.46615695 88.73194974 29.82683343 88.64730433 31.1875 88.5625 C31.86103516 88.52318359 32.53457031 88.48386719 33.22851562 88.44335938 C36.89699102 88.21072435 40.41694206 87.82792989 44 87 C44 86.34 44 85.68 44 85 C45.29233607 83.62689293 46.62437146 82.28965176 48 81 C48.99 81.33 49.98 81.66 51 82 C46.38976963 88.99483229 44.04865998 88.70957819 35 92 C23.45 92 11.9 92 0 92 C0 61.64 0 31.28 0 0 Z " fill="#E96563" transform="translate(311,110)"/>
<path d="M0 0 C0.33 0 0.66 0 1 0 C1.02314282 12.59541338 1.04092502 25.19082173 1.05181217 37.78625202 C1.05703674 43.63444582 1.0641267 49.4826251 1.07543945 55.33081055 C1.08628341 60.97177969 1.09228006 66.61273485 1.09487724 72.25371361 C1.09672876 74.40874642 1.10034416 76.56377844 1.10573006 78.71880531 C1.11296046 81.73092952 1.11399009 84.7429955 1.11352539 87.75512695 C1.11712067 88.65136276 1.12071594 89.54759857 1.12442017 90.47099304 C1.1230455 91.29128998 1.12167084 92.11158691 1.12025452 92.95674133 C1.12117631 93.66928731 1.1220981 94.38183329 1.12304783 95.11597157 C1 97 1 97 0 100 C-3.69946752 101.95249675 -5.63532323 102 -10 102 C-10 107.94 -10 113.88 -10 120 C-7.0609375 119.7834375 -7.0609375 119.7834375 -4.0625 119.5625 C-2.96035156 119.48128906 -1.85820312 119.40007812 -0.72265625 119.31640625 C1.91109903 119.29581916 1.91109903 119.29581916 3 118 C4.99958364 117.95919217 7.00045254 117.95745644 9 118 C9.14115234 117.10667969 9.14115234 117.10667969 9.28515625 116.1953125 C10.16011749 113.50827306 11.24365267 112.61730703 13.4375 110.875 C15.39564974 109.29703382 17.21849868 107.78150132 19 106 C18.40032681 109.48121968 17.1220099 111.41650522 14.8125 114.0625 C14.24144531 114.73410156 13.67039063 115.40570313 13.08203125 116.09765625 C8.58179321 120.20950602 3.73903757 121.49840602 -2.1875 122.375 C-4.00314453 122.66503906 -4.00314453 122.66503906 -5.85546875 122.9609375 C-9 123 -9 123 -10.67382812 121.76245117 C-12.29325871 119.61026608 -12.37424797 118.50949792 -12.36328125 115.83984375 C-12.36263672 115.04642578 -12.36199219 114.25300781 -12.36132812 113.43554688 C-12.34521484 112.61119141 -12.32910156 111.78683594 -12.3125 110.9375 C-12.31572266 110.10927734 -12.31894531 109.28105469 -12.32226562 108.42773438 C-12.26712592 102.26712592 -12.26712592 102.26712592 -10 100 C-7.95211518 99.1624193 -5.8763398 98.47965013 -3.77734375 97.78125 C-1.80353553 97.13945096 -1.80353553 97.13945096 -1 95 C-0.87705231 92.01052961 -0.81421231 89.04288133 -0.79467773 86.05224609 C-0.77982834 84.66192421 -0.77982834 84.66192421 -0.76467896 83.24351501 C-0.7330118 80.17018211 -0.70828592 77.09683372 -0.68359375 74.0234375 C-0.66302873 71.89636832 -0.64203238 69.76930326 -0.62062073 67.64224243 C-0.56535342 62.03628884 -0.5159647 56.43029808 -0.46777344 50.82427979 C-0.4175924 45.10677777 -0.36188862 39.3893299 -0.30664062 33.671875 C-0.19900207 22.4479629 -0.09756978 11.22400383 0 0 Z " fill="#F49394" transform="translate(157,111)"/>
<path d="M0 0 C3.4372046 3.0120577 4.83332096 5.53057255 6.1875 9.875 C6.51105469 10.88304687 6.83460938 11.89109375 7.16796875 12.9296875 C9.29076955 20.76312145 9.2184344 28.43498797 9.25 36.5 C9.270625 37.78648437 9.29125 39.07296875 9.3125 40.3984375 C9.36758618 54.08735428 7.93664888 67.60838399 -1.83984375 77.9453125 C-6.3 82 -6.3 82 -10 82 C-9.67 81.01 -9.34 80.02 -9 79 C-8.01 79 -7.02 79 -6 79 C-6 78.01 -6 77.02 -6 76 C-4.515 75.505 -4.515 75.505 -3 75 C-1.78130071 72.49552484 -1.78130071 72.49552484 -1 70 C-0.01 70 0.98 70 2 70 C2.13317627 69.29794434 2.26635254 68.59588867 2.40356445 67.87255859 C2.80203549 65.95343857 3.24899927 64.0437708 3.74291992 62.14697266 C5.81340771 54.10385105 6.43071344 46.65939768 6.3125 38.375 C6.31572266 37.23804688 6.31894531 36.10109375 6.32226562 34.9296875 C6.26050145 25.13725892 4.94448549 16.17747937 1.6640625 6.94921875 C0.8855202 4.66396813 0.38420439 2.38206722 0 0 Z " fill="#E46C6B" transform="translate(266,118)"/>
<path d="M0 0 C3.3 0 6.6 0 10 0 C10 0.66 10 1.32 10 2 C8.906875 2.0825 7.81375 2.165 6.6875 2.25 C3.03175669 2.62224731 3.03175669 2.62224731 1.34375 4.7734375 C-5.56221772 16.2164654 -2.91740737 37.15955072 -0.73046875 49.7578125 C0.12168766 52.37352256 1.10433678 54.00597689 3 56 C6.60465748 56.81314911 6.60465748 56.81314911 10 57 C10 57.33 10 57.66 10 58 C8.741875 58.185625 7.48375 58.37125 6.1875 58.5625 C5.12595703 58.71912109 5.12595703 58.71912109 4.04296875 58.87890625 C2 59 2 59 -1 58 C-2.0625 55.75 -2.0625 55.75 -3 53 C-3.34240723 52.31043213 -3.68481445 51.62086426 -4.03759766 50.91040039 C-5.39027661 46.81976472 -5.32483392 42.96643361 -5.3359375 38.68359375 C-5.3425943 37.79011734 -5.3492511 36.89664093 -5.35610962 35.97608948 C-5.3662093 34.09256035 -5.37092747 32.20899563 -5.37060547 30.32543945 C-5.37499075 27.44357752 -5.41137097 24.56323308 -5.44921875 21.68164062 C-5.45508505 19.84896356 -5.45905569 18.01627924 -5.4609375 16.18359375 C-5.47530853 15.32309921 -5.48967957 14.46260468 -5.50448608 13.57603455 C-5.45843947 7.55640002 -5.45843947 7.55640002 -3.03369141 4.61352539 C-2.36257324 4.08106201 -1.69145508 3.54859863 -1 3 C-0.67 2.01 -0.34 1.02 0 0 Z " fill="#E62927" transform="translate(238,126)"/>
<path d="M0 0 C1.32 0 2.64 0 4 0 C9.22421424 9.20105322 8.4903091 18.71789745 8.3125 28.9375 C8.30098896 30.64907769 8.29120964 32.36066795 8.28320312 34.07226562 C8.26979392 35.70313862 8.25487508 37.33400005 8.23828125 38.96484375 C8.23089432 39.72731918 8.22350739 40.48979462 8.21589661 41.27537537 C8.15864951 44.43434145 8.00591653 46.98225041 7 50 C6.34 50 5.68 50 5 50 C5 51.32 5 52.64 5 54 C2.525 54.495 2.525 54.495 0 55 C0.474375 54.2575 0.94875 53.515 1.4375 52.75 C4.25373858 47.79342009 4.17304048 43.11244538 4.203125 37.5078125 C4.20882507 36.68425262 4.21452515 35.86069275 4.22039795 35.01217651 C4.22982889 33.27229083 4.23637435 31.53238743 4.24023438 29.79248047 C4.24994039 27.14128248 4.28098132 24.49085999 4.3125 21.83984375 C4.31903074 20.14583792 4.32428093 18.45182656 4.328125 16.7578125 C4.3404718 15.97012482 4.3528186 15.18243713 4.36553955 14.37088013 C4.34590888 9.48185476 3.57022478 6.29645872 1 2 C0.67 1.34 0.34 0.68 0 0 Z " fill="#EE1716" transform="translate(248,128)"/>
<path d="M0 0 C3.96 0 7.92 0 12 0 C14.87323 4.78871667 15.37262934 5.69058834 15.1875 10.8125 C15.16042969 11.78832031 15.13335937 12.76414063 15.10546875 13.76953125 C15.07066406 14.50558594 15.03585937 15.24164063 15 16 C14.01 16.33 13.02 16.66 12 17 C11.71125 18.093125 11.4225 19.18625 11.125 20.3125 C9.83357243 24.54551258 8.78351627 25.80028124 5 28 C3.35 28 1.7 28 0 28 C0 18.76 0 9.52 0 0 Z M2 1 C2 8.92 2 16.84 2 25 C8.91209239 21.5439538 11.51049712 17.13657491 14 10 C14.58963678 7.24224658 14.58963678 7.24224658 14 5 C10.63559456 1.01089951 10.63559456 1.01089951 2 1 Z " fill="#E51C1E" transform="translate(330,127)"/>
<path d="M0 0 C0.33 0 0.66 0 1 0 C1.33 10.23 1.66 20.46 2 31 C2.33 31 2.66 31 3 31 C3.25523437 32.35931641 3.25523437 32.35931641 3.515625 33.74609375 C4.81773043 40.29125137 6.18676127 46.26844997 9.23046875 52.23046875 C10 54 10 54 10 57 C11.32 57.33 12.64 57.66 14 58 C14 58.99 14 59.98 14 61 C8.56679835 58.6765142 5.51813847 54.12970084 2.984375 48.90625 C0.32320922 42.12288624 -0.14549958 35.53546007 -0.09765625 28.3203125 C-0.0962413 27.50754852 -0.09482635 26.69478455 -0.09336853 25.85739136 C-0.08780335 23.27988899 -0.0752574 20.7024758 -0.0625 18.125 C-0.0574805 16.36979293 -0.05291838 14.61458448 -0.04882812 12.859375 C-0.03784534 8.57288268 -0.02060492 4.28645643 0 0 Z " fill="#D93131" transform="translate(215,137)"/>
<path d="M0 0 C0.66 0.33 1.32 0.66 2 1 C2.37890625 3.8359375 2.37890625 3.8359375 2.5625 7.375 C2.82302499 12.27255474 2.82302499 12.27255474 4 17 C1.06782072 20.22539721 -1.37390197 21.88644567 -5.796875 22.1953125 C-9.8984375 22.09765625 -9.8984375 22.09765625 -14 22 C-14 17.05 -14 12.1 -14 7 C-14.66 6.67 -15.32 6.34 -16 6 C-14.20963542 5.0234375 -12.41927083 4.046875 -10.62890625 3.0703125 C-8.83381685 2.08589976 -8.83381685 2.08589976 -8 0 C-4.67803635 -1.10732122 -3.31749961 -0.85064093 0 0 Z M-11.06640625 4.734375 C-14.46724315 8.71919399 -13.64221984 13.15262916 -13.31640625 18.1484375 C-13.21199219 19.08945313 -13.10757812 20.03046875 -13 21 C-8.53358557 21.35030701 -5.05085562 21.49325876 -0.9375 19.5625 C1.51600066 16.31754751 1.58604258 14.31155365 1.375 10.328125 C0.81459758 6.84895999 -0.40035387 4.13264035 -2 1 C-5.56536243 1 -8.15177665 2.81305117 -11.06640625 4.734375 Z " fill="#F25355" transform="translate(345,163)"/>
<path d="M0 0 C5.45589009 0.44537878 9.64547611 1.56392408 14 5 C18.86968431 11.27932977 19.5005645 16.29363497 19 24 C18.5031951 26.44514412 17.82216116 28.63628668 17 31 C16.67 31 16.34 31 16 31 C16.33 26.05 16.66 21.1 17 16 C16.34 16 15.68 16 15 16 C14.85304688 15.30132812 14.70609375 14.60265625 14.5546875 13.8828125 C13.87413563 11.12149286 13.17228806 8.59363365 12 6 C8.98226415 4.23902514 8.98226415 4.23902514 6 4 C6 3.34 6 2.68 6 2 C3.03 1.505 3.03 1.505 0 1 C0 0.67 0 0.34 0 0 Z " fill="#EC5253" transform="translate(346,111)"/>
<path d="M0 0 C-0.625 2.3125 -0.625 2.3125 -2 5 C-4 6 -6 7 -8 8 C-9.23290201 10.45704762 -9.23290201 10.45704762 -10 13 C-10.495 13.45375 -10.99 13.9075 -11.5 14.375 C-13.80145734 16.86824545 -14.20622822 19.76385352 -15 23 C-15.66 23 -16.32 23 -17 23 C-16.33704393 15.04452715 -13.91470036 9.42259705 -7.875 4.0625 C-2.97038724 0 -2.97038724 0 0 0 Z " fill="#EA3F41" transform="translate(233,111)"/>
<path d="M0 0 C8.58 0 17.16 0 26 0 C26.33 0.99 26.66 1.98 27 3 C23.23025424 4.25658192 19.67827808 4.22313998 15.75 4.25 C15.01136719 4.270625 14.27273437 4.29125 13.51171875 4.3125 C8.26275278 4.34952974 4.69241064 3.3586191 0 1 C0 0.67 0 0.34 0 0 Z " fill="#ED2727" transform="translate(229,198)"/>
<path d="M0 0 C0.66 0.33 1.32 0.66 2 1 C1.67394322 8.49930595 -1.74602535 14.5258833 -6.84765625 19.97265625 C-11.33200355 24 -11.33200355 24 -15 24 C-14.505 22.515 -14.505 22.515 -14 21 C-13.01 21 -12.02 21 -11 21 C-11 20.01 -11 19.02 -11 18 C-10.01 17.67 -9.02 17.34 -8 17 C-6.78130071 14.49552484 -6.78130071 14.49552484 -6 12 C-5.01 12 -4.02 12 -3 12 C-2.87625 11.319375 -2.7525 10.63875 -2.625 9.9375 C-1.90899123 6.5722588 -0.97054875 3.29986575 0 0 Z " fill="#E73031" transform="translate(271,176)"/>
<path d="M0 0 C0.99 0.33 1.98 0.66 3 1 C-0.49542761 6.30340741 -3.97925505 8.3974782 -9.99609375 10.38671875 C-14.78564823 11.36456017 -19.22372491 10.84993677 -24 10 C-24 9.34 -24 8.68 -24 8 C-22.46279297 7.90912109 -22.46279297 7.90912109 -20.89453125 7.81640625 C-19.53384305 7.73194974 -18.17316657 7.64730433 -16.8125 7.5625 C-16.13896484 7.52318359 -15.46542969 7.48386719 -14.77148438 7.44335938 C-11.10300898 7.21072435 -7.58305794 6.82792989 -4 6 C-4 5.34 -4 4.68 -4 4 C-2.70766393 2.62689293 -1.37562854 1.28965176 0 0 Z " fill="#E94744" transform="translate(359,191)"/>
<path d="M0 0 C1.26421717 3.79265151 0.53097855 5.61011043 -0.375 9.5 C-2.93438556 21.47555702 -2.75774925 33.80448139 -3 46 C-3.33 46 -3.66 46 -4 46 C-4 33.79 -4 21.58 -4 9 C-3.34 9 -2.68 9 -2 9 C-1.7834375 7.329375 -1.7834375 7.329375 -1.5625 5.625 C-1 2 -1 2 0 0 Z " fill="#EC1817" transform="translate(220,125)"/>
<path d="M0 0 C4.99522384 4.42734576 6.59956876 9.59002617 8 16 C8.03148886 19.20736521 7.63329716 21.83351419 7 25 C6.67 25 6.34 25 6 25 C5.89042969 24.31035156 5.78085937 23.62070313 5.66796875 22.91015625 C4.73687436 17.39171877 3.53822685 12.22148918 1.6640625 6.94921875 C0.8855202 4.66396813 0.38420439 2.38206722 0 0 Z " fill="#EC504C" transform="translate(266,118)"/>
<path d="M0 0 C1.32 0 2.64 0 4 0 C5.63270104 2.87581413 6.24741973 4.91800375 6.22705078 8.21777344 C6.22689972 9.03832214 6.22674866 9.85887085 6.22659302 10.70428467 C6.21627045 11.58046448 6.20594788 12.45664429 6.1953125 13.359375 C6.1924826 14.26375305 6.18965271 15.1681311 6.18673706 16.09991455 C6.17555782 18.98341195 6.15045733 21.86659675 6.125 24.75 C6.11496728 26.70702676 6.10584194 28.66405839 6.09765625 30.62109375 C6.07562585 35.41418262 6.04111144 40.20703834 6 45 C5.67 45 5.34 45 5 45 C4.97812622 43.36587158 4.97812622 43.36587158 4.95581055 41.69873047 C4.89763928 37.63932215 4.82040818 33.58045763 4.73754883 29.52148438 C4.7043878 27.76799373 4.67632858 26.01439862 4.65356445 24.26074219 C4.6198553 21.73327302 4.56753308 19.20675362 4.51171875 16.6796875 C4.50532883 15.90132538 4.4989389 15.12296326 4.49235535 14.3210144 C4.36308792 9.48632716 3.52067277 6.25325834 1 2 C0.67 1.34 0.34 0.68 0 0 Z " fill="#FB9795" transform="translate(248,128)"/>
<path d="M0 0 C3.63 0 7.26 0 11 0 C11.66 1.65 12.32 3.3 13 5 C11.33984375 4.25130208 9.6796875 3.50260417 8.01953125 2.75390625 C5.55613125 1.77324417 5.55613125 1.77324417 1 1 C1 8.92 1 16.84 1 25 C2.98 23.68 4.96 22.36 7 21 C6.3125 22.9375 6.3125 22.9375 5 25 C3.35 25.33 1.7 25.66 0 26 C0 17.42 0 8.84 0 0 Z " fill="#F67F80" transform="translate(331,127)"/>
<path d="M0 0 C3.3 0 6.6 0 10 0 C10 0.66 10 1.32 10 2 C8.906875 2.0825 7.81375 2.165 6.6875 2.25 C3.05313448 2.63094546 3.05313448 2.63094546 1.34375 4.6875 C-0.23312904 7.40119881 -0.70860741 9.65561713 -1.1875 12.75 C-1.34605469 13.73484375 -1.50460938 14.7196875 -1.66796875 15.734375 C-1.77753906 16.48203125 -1.88710937 17.2296875 -2 18 C-2.33 18 -2.66 18 -3 18 C-3.93245699 14.34577667 -4.74404539 10.76852327 -5 7 C-3.1875 4.5 -3.1875 4.5 -1 3 C-0.67 2.01 -0.34 1.02 0 0 Z " fill="#EB4946" transform="translate(238,126)"/>
<path d="M0 0 C2.96416864 3.49900777 5.19812382 6.96392915 7.25 11.0625 C8.03117187 12.59583984 8.03117187 12.59583984 8.828125 14.16015625 C10 17 10 17 10 21 C9.34 21 8.68 21 8 21 C7.67 18.69 7.34 16.38 7 14 C6.34 14 5.68 14 5 14 C5 13.34 5 12.68 5 12 C4.34 12 3.68 12 3 12 C1.82923301 8.01939223 0.74250597 4.08378283 0 0 Z " fill="#EA393B" transform="translate(354,153)"/>
<path d="M0 0 C6.6 0 13.2 0 20 0 C20 3.3 20 6.6 20 10 C19.67 10 19.34 10 19 10 C18.67 7.69 18.34 5.38 18 3 C12.39 2.67 6.78 2.34 1 2 C0.67 1.34 0.34 0.68 0 0 Z " fill="#E44A4D" transform="translate(158,110)"/>
<path d="M0 0 C0.33 0.99 0.66 1.98 1 3 C-0.38440658 4.63474589 -1.78303245 6.25745662 -3.1875 7.875 C-3.96480469 8.77992188 -4.74210938 9.68484375 -5.54296875 10.6171875 C-8.8722501 13.84590232 -11.37714705 15 -16 15 C-15.67 14.01 -15.34 13.02 -15 12 C-13.02 12 -11.04 12 -9 12 C-8.9071875 11.40445313 -8.814375 10.80890625 -8.71875 10.1953125 C-7.83342903 7.49123431 -6.72039762 6.61309813 -4.5 4.875 C-1.8119616 2.80112319 -1.8119616 2.80112319 0 0 Z " fill="#E74C4E" transform="translate(175,217)"/>
<path d="M0 0 C0 0.66 0 1.32 0 2 C-2.31 2 -4.62 2 -7 2 C-7 10.58 -7 19.16 -7 28 C-7.33 28 -7.66 28 -8 28 C-8.88902912 21.95180188 -9.12348383 16.10776514 -9.0625 10 C-9.05798828 9.12988281 -9.05347656 8.25976562 -9.04882812 7.36328125 C-9.0371736 5.24215707 -9.01924357 3.1210689 -9 1 C-5.52452927 -0.94566951 -3.87493656 -1.07637127 0 0 Z " fill="#F2110E" transform="translate(337,125)"/>
<path d="M0 0 C0.33 0 0.66 0 1 0 C1.10957031 0.74765625 1.21914062 1.4953125 1.33203125 2.265625 C1.49058594 3.25046875 1.64914063 4.2353125 1.8125 5.25 C1.96332031 6.22453125 2.11414063 7.1990625 2.26953125 8.203125 C3.04944718 11.18932718 3.84499229 12.80433176 6 15 C9.60465748 15.81314911 9.60465748 15.81314911 13 16 C13 16.33 13 16.66 13 17 C11.741875 17.185625 10.48375 17.37125 9.1875 17.5625 C8.47980469 17.66691406 7.77210938 17.77132812 7.04296875 17.87890625 C5 18 5 18 2 17 C-0.0647104 13.20558189 -0.21872326 9.95190828 -0.125 5.6875 C-0.10695312 4.61886719 -0.08890625 3.55023438 -0.0703125 2.44921875 C-0.04710937 1.64097656 -0.02390625 0.83273438 0 0 Z " fill="#F05E5C" transform="translate(235,167)"/>
<path d="M0 0 C0.33 0 0.66 0 1 0 C1.20177072 7.35342179 1.21211746 13.94887561 -1 21 C-2.65 21.33 -4.3 21.66 -6 22 C-5.54625 21.278125 -5.0925 20.55625 -4.625 19.8125 C-1.88253487 15.06592574 -0.73648027 11.16995071 -0.375 5.6875 C-0.30023438 4.61886719 -0.22546875 3.55023438 -0.1484375 2.44921875 C-0.09945312 1.64097656 -0.05046875 0.83273438 0 0 Z " fill="#D71F21" transform="translate(254,161)"/>
<path d="M0 0 C0.66 0 1.32 0 2 0 C2 0.99 2 1.98 2 3 C3.32 3.66 4.64 4.32 6 5 C6 5.99 6 6.98 6 8 C7.32 8.33 8.64 8.66 10 9 C10 9.99 10 10.98 10 12 C6.60812721 10.58426179 4.90302459 8.95769034 2.75 6 C2.22921875 5.29875 1.7084375 4.5975 1.171875 3.875 C0 2 0 2 0 0 Z " fill="#EA4D4E" transform="translate(219,186)"/>
<path d="M0 0 C0.33 0 0.66 0 1 0 C1 3.63 1 7.26 1 11 C0.01 11.33 -0.98 11.66 -2 12 C-2.73323796 14.01508358 -2.73323796 14.01508358 -3 16 C-3.66 16 -4.32 16 -5 16 C-4.5978125 14.824375 -4.5978125 14.824375 -4.1875 13.625 C-2.70766479 9.10760831 -1.35097726 4.55729662 0 0 Z " fill="#E85659" transform="translate(344,132)"/>
<path d="M0 0 C0.33 0 0.66 0 1 0 C1.3690205 12.66970387 1.3690205 12.66970387 -1 18 C-1.33 18 -1.66 18 -2 18 C-1.85860519 15.74971671 -1.71171997 13.49977794 -1.5625 11.25 C-1.48128906 9.99703125 -1.40007812 8.7440625 -1.31640625 7.453125 C-1.07484478 4.81682447 -0.75716066 2.51962706 0 0 Z " fill="#EB6C6B" transform="translate(364,174)"/>
<path d="M0 0 C0.66 0 1.32 0 2 0 C2 4.62 2 9.24 2 14 C1.34 14 0.68 14 0 14 C-0.19532961 12.2300132 -0.38098882 10.45895721 -0.5625 8.6875 C-0.66691406 7.70136719 -0.77132813 6.71523437 -0.87890625 5.69921875 C-1 3 -1 3 0 0 Z " fill="#E81717" transform="translate(329,170)"/>
<path d="M0 0 C4.37859255 0.50522222 6.81651224 3.17827222 10 6 C9.67 6.66 9.34 7.32 9 8 C5.56247993 6.4722133 2.81046312 4.49818944 0 2 C0 1.34 0 0.68 0 0 Z " fill="#EE393D" transform="translate(256,111)"/>
<path d="M0 0 C3.3 0 6.6 0 10 0 C10.33 0.99 10.66 1.98 11 3 C7.37 2.67 3.74 2.34 0 2 C0 1.34 0 0.68 0 0 Z " fill="#F23535" transform="translate(335,199)"/>
<path d="M0 0 C-1.09601169 1.00893131 -2.20213918 2.00688225 -3.3125 3 C-4.23482422 3.8353125 -4.23482422 3.8353125 -5.17578125 4.6875 C-7 6 -7 6 -10 6 C-9.67 5.01 -9.34 4.02 -9 3 C-8.01 3 -7.02 3 -6 3 C-6 2.01 -6 1.02 -6 0 C-3 -1 -3 -1 0 0 Z " fill="#E4393A" transform="translate(266,194)"/>
<path d="M0 0 C0.66 0.33 1.32 0.66 2 1 C0.30820672 3.04219706 -0.63727666 3.91793306 -3.26171875 4.51171875 C-4.06222656 4.56972656 -4.86273438 4.62773437 -5.6875 4.6875 C-6.49574219 4.75324219 -7.30398438 4.81898438 -8.13671875 4.88671875 C-9.05904297 4.94279297 -9.05904297 4.94279297 -10 5 C-10.33 4.01 -10.66 3.02 -11 2 C-10.28972656 1.93941406 -9.57945312 1.87882813 -8.84765625 1.81640625 C-7.46900391 1.69072266 -7.46900391 1.69072266 -6.0625 1.5625 C-5.14597656 1.48128906 -4.22945313 1.40007812 -3.28515625 1.31640625 C-1.03840268 1.23955024 -1.03840268 1.23955024 0 0 Z " fill="#E91010" transform="translate(343,183)"/>
<path d="M0 0 C0.33 0.66 0.66 1.32 1 2 C0.02501855 3.5027237 -0.95509389 5.00211963 -1.9375 6.5 C-2.75541016 7.75296875 -2.75541016 7.75296875 -3.58984375 9.03125 C-4.05519531 9.6809375 -4.52054687 10.330625 -5 11 C-5.33 11 -5.66 11 -6 11 C-6.3125 8.8125 -6.3125 8.8125 -6 6 C-3.5625 3.25 -3.5625 3.25 -1 1 C-0.67 0.67 -0.34 0.34 0 0 Z " fill="#E84642" transform="translate(361,142)"/>
<path d="M0 0 C0.66 0.99 1.32 1.98 2 3 C1.525625 3.9075 1.05125 4.815 0.5625 5.75 C-0.64628821 8.26427949 -1.47993886 10.29568209 -2 13 C-2.66 13 -3.32 13 -4 13 C-3.50269348 8.02693484 -2.44697666 4.36200187 0 0 Z " fill="#E36A6D" transform="translate(220,121)"/>
<path d="M0 0 C5.00890086 0.61512818 10.00632136 1.2717552 15 2 C12.25129997 3.86911602 10.8929705 3.99426628 7.5 3.8125 C4.14472087 3.03359592 2.495221 2.29560332 0 0 Z " fill="#EB4A49" transform="translate(229,198)"/>
<path d="M0 0 C3.12270126 2.51830747 3.94523098 3.7261549 4.75 7.75 C4.8325 8.8225 4.915 9.895 5 11 C4.34 11 3.68 11 3 11 C0 4.5 0 4.5 0 0 Z " fill="#E85B5C" transform="translate(266,118)"/>
<path d="M0 0 C2.97 0 5.94 0 9 0 C9 0.33 9 0.66 9 1 C8.05125 1.28875 7.1025 1.5775 6.125 1.875 C2.94788422 2.76825109 2.94788422 2.76825109 1 5 C0.01 5 -0.98 5 -2 5 C-1.34 3.35 -0.68 1.7 0 0 Z " fill="#F20D0C" transform="translate(233,111)"/>
<path d="M0 0 C1.32 0 2.64 0 4 0 C5.85776765 3.13498292 6.20140476 5.37471432 6 9 C2.98101014 7.49050507 2.40039451 4.98344918 1 2 C0.67 1.34 0.34 0.68 0 0 Z " fill="#ED5759" transform="translate(248,128)"/>
<path d="M0 0 C3.14958831 3.42346555 3.56179109 6.44262737 4 11 C3.34 11 2.68 11 2 11 C0.80712589 7.12315913 0 4.08378077 0 0 Z " fill="#E55052" transform="translate(360,163)"/>
<path d="M0 0 C-0.625 2.375 -0.625 2.375 -2 5 C-5.125 6.3125 -5.125 6.3125 -8 7 C-3.53191489 0 -3.53191489 0 0 0 Z " fill="#F02F2D" transform="translate(233,111)"/>
<path d="M0 0 C0.99 0.33 1.98 0.66 3 1 C1.38405168 3.04119788 -0.2856382 5.04072937 -2 7 C-2.66 7 -3.32 7 -4 7 C-4 4 -4 4 -2 1.8125 C-1.34 1.214375 -0.68 0.61625 0 0 Z " fill="#EA3841" transform="translate(359,191)"/>
<path d="M0 0 C0.66 0.33 1.32 0.66 2 1 C1.25 7.75 1.25 7.75 -1 10 C-2.31223496 6.06329512 -1.24296256 3.87511856 0 0 Z " fill="#EB6668" transform="translate(271,176)"/>
<path d="M0 0 C0.33 0 0.66 0 1 0 C1.66 4.29 2.32 8.58 3 13 C2.01 12.67 1.02 12.34 0 12 C0 8.04 0 4.08 0 0 Z " fill="#E7484E" transform="translate(235,167)"/>
<path d="M0 0 C0.33 0 0.66 0 1 0 C1 1.98 1 3.96 1 6 C-1.64 6 -4.28 6 -7 6 C-7 5.67 -7 5.34 -7 5 C-5.35 5 -3.7 5 -2 5 C-1.34 3.35 -0.68 1.7 0 0 Z " fill="#4A4A4A" transform="translate(433,153)"/>
<path d="M0 0 C0.66 0 1.32 0 2 0 C2 4.29 2 8.58 2 13 C1.67 13 1.34 13 1 13 C0.63779734 11.20994059 0.28547531 9.41787943 -0.0625 7.625 C-0.25972656 6.62726563 -0.45695313 5.62953125 -0.66015625 4.6015625 C-1 2 -1 2 0 0 Z " fill="#F23338" transform="translate(234,131)"/>
<path d="M0 0 C0.33 0 0.66 0 1 0 C1.05416188 1.60379341 1.09286638 3.20811406 1.125 4.8125 C1.14820313 5.70582031 1.17140625 6.59914062 1.1953125 7.51953125 C1 10 1 10 -1 13 C-1.66 13 -2.32 13 -3 13 C-2.68289062 12.43796875 -2.36578125 11.8759375 -2.0390625 11.296875 C-0.93125475 8.84803683 -0.61024601 6.91612145 -0.375 4.25 C-0.30023438 3.45078125 -0.22546875 2.6515625 -0.1484375 1.828125 C-0.09945312 1.22484375 -0.05046875 0.6215625 0 0 Z " fill="#EB191B" transform="translate(175,207)"/>
<path d="M0 0 C0 0.99 0 1.98 0 3 C-3.47325181 4.1577506 -6.36067448 4.06866652 -10 4 C-8.66666667 3.33333333 -7.33333333 2.66666667 -6 2 C-5.29875 1.62875 -4.5975 1.2575 -3.875 0.875 C-2 0 -2 0 0 0 Z " fill="#E45A5A" transform="translate(157,208)"/>
<path d="M0 0 C0.33 0 0.66 0 1 0 C1 2.64 1 5.28 1 8 C-0.65 8.33 -2.3 8.66 -4 9 C-3.2884375 7.88625 -3.2884375 7.88625 -2.5625 6.75 C-1.22130673 4.38949985 -0.487688 2.63351523 0 0 Z " fill="#F16668" transform="translate(252,174)"/>
<path d="M0 0 C0.66 0 1.32 0 2 0 C2.33 1.98 2.66 3.96 3 6 C2.01 6.66 1.02 7.32 0 8 C0 5.36 0 2.72 0 0 Z " fill="#F10F0A" transform="translate(345,132)"/>
<path d="M0 0 C1.98 0 3.96 0 6 0 C6.66 1.65 7.32 3.3 8 5 C5.36 3.68 2.72 2.36 0 1 C0 0.67 0 0.34 0 0 Z " fill="#ED6562" transform="translate(336,127)"/>
</svg>
