<?xml version="1.0" encoding="UTF-8"?>
<svg version="1.1" xmlns="http://www.w3.org/2000/svg" width="256" height="256">
<path d="M0 0 C11.88 0 23.76 0 36 0 C39.28612098 20.51282468 42.56499709 41.02676429 45.83059788 61.5428648 C47.34708059 71.06864842 48.86683595 80.59388839 50.39428711 90.11791992 C51.72549204 98.41836127 53.05056594 106.71975401 54.36826462 115.02235061 C55.06628933 119.41910026 55.76738946 123.81530978 56.47583199 128.21039391 C57.14247322 132.34676398 57.80091199 136.4843563 58.45307159 140.62303352 C58.69391762 142.14206482 58.93776153 143.66062429 59.18482018 145.17865753 C59.52169697 147.25139549 59.84774402 149.32556161 60.17115784 151.4004364 C60.35643823 152.56097377 60.54171862 153.72151114 60.73261356 154.9172163 C61.06239751 158.71940081 60.97123045 161.6701891 58.68408203 164.80175781 C58.13091309 165.34670898 57.57774414 165.89166016 57.0078125 166.453125 C56.08210449 167.37532837 56.08210449 167.37532837 55.13769531 168.31616211 C54.47350586 168.95432861 53.80931641 169.59249512 53.125 170.25 C52.4453418 170.91459229 51.76568359 171.57918457 51.06542969 172.26391602 C27.07172751 195.47496917 27.07172751 195.47496917 18.19921875 196.2421875 C8.28491547 195.49165416 -0.16015779 185.44242018 -7 179 C-8.34794172 177.82614669 -9.70153713 176.65873144 -11.0625 175.5 C-11.98869141 174.66082031 -11.98869141 174.66082031 -12.93359375 173.8046875 C-15.06651351 171.89200876 -15.06651351 171.89200876 -17.78515625 169.9453125 C-20.82547228 167.46120284 -22.87596204 165.30674945 -25 162 C-25.17349243 158.90541077 -25.17349243 158.90541077 -24.60009766 155.23461914 C-24.4952537 154.51842187 -24.39040974 153.8022246 -24.28238869 153.06432438 C-24.0289967 151.3684353 -23.76245608 149.67448346 -23.48621368 147.98216629 C-22.93741031 144.6161094 -22.42368249 141.2455421 -21.91131592 137.87374878 C-20.69094739 129.90944194 -19.42506943 121.95274773 -18.152843 113.99658465 C-17.5110894 109.97850943 -16.87327666 105.95980861 -16.23501587 101.94117737 C-15.030135 94.35874744 -13.82179644 86.77687293 -12.61216223 79.19520003 C-11.23335935 70.55211437 -9.85849202 61.9084041 -8.48392749 53.26464355 C-5.66027818 35.50907136 -2.83125796 17.75436063 0 0 Z " fill="#FF0000" transform="translate(110,60)"/>
<path d="M0 0 C2.40156648 2.97794244 2.98505413 5.9688721 2.890625 9.75390625 C1.29192062 20.39290326 -6.75854676 35.25854676 -14.4375 42.9375 C-16.60502625 43.24530029 -16.60502625 43.24530029 -19.3269043 43.32324219 C-20.34523849 43.35536804 -21.36357269 43.3874939 -22.4127655 43.42059326 C-27.08203583 43.5095208 -31.75073467 43.59165254 -36.4206543 43.63769531 C-38.8816515 43.67078326 -41.34245768 43.72532581 -43.80249023 43.80175781 C-47.3524119 43.91149264 -50.89782808 43.95506085 -54.44921875 43.984375 C-56.09176888 44.05238312 -56.09176888 44.05238312 -57.76750183 44.12176514 C-65.26236186 44.08045244 -65.26236186 44.08045244 -68.65315247 40.78253174 C-70.45987987 38.23658027 -71.98398333 35.69788461 -73.4375 32.9375 C-74.22423628 31.58794412 -75.0117648 30.23884905 -75.80078125 28.890625 C-76.45728785 27.65983572 -77.10723272 26.42551995 -77.75 25.1875 C-78.08322266 24.56746094 -78.41644531 23.94742188 -78.75976562 23.30859375 C-81.99108448 17.18134242 -84.07335619 11.93191805 -83.4375 4.9375 C-81.17243331 -0.18870356 -77.55502051 -3.20844243 -72.38671875 -5.29296875 C-71.31035156 -5.60878906 -70.23398438 -5.92460938 -69.125 -6.25 C-68.05636719 -6.57355469 -66.98773438 -6.89710937 -65.88671875 -7.23046875 C-47.00435876 -11.78533022 -15.76987604 -13.34374126 0 0 Z " fill="#FF0000" transform="translate(168.4375,9.0625)"/>
</svg>
